<svg width="17" height="17" viewBox="0 0 17 17" fill="none" xmlns="http://www.w3.org/2000/svg">
<path fill-rule="evenodd" clip-rule="evenodd" d="M8.5 4.57692C6.33334 4.57692 4.57692 6.33334 4.57692 8.5C4.57692 10.6667 6.33334 12.4231 8.5 12.4231C10.6667 12.4231 12.4231 10.6667 12.4231 8.5C12.4208 6.33428 10.6657 4.57918 8.5 4.57692ZM8.5 11.1154C7.05556 11.1154 5.88462 9.94444 5.88462 8.5C5.88462 7.05556 7.05556 5.88462 8.5 5.88462C9.94444 5.88462 11.1154 7.05556 11.1154 8.5C11.1154 9.94444 9.94444 11.1154 8.5 11.1154ZM12.4231 0H4.57692C2.05028 0.00270274 0.00270274 2.05028 0 4.57692V12.4231C0.00270274 14.9497 2.05028 16.9973 4.57692 17H12.4231C14.9497 16.9973 16.9973 14.9497 17 12.4231V4.57692C16.9973 2.05028 14.9497 0.00270274 12.4231 0ZM15.6923 12.4231C15.6923 14.2286 14.2286 15.6923 12.4231 15.6923H4.57692C2.77138 15.6923 1.30769 14.2286 1.30769 12.4231V4.57692C1.30769 2.77138 2.77138 1.30769 4.57692 1.30769H12.4231C14.2286 1.30769 15.6923 2.77138 15.6923 4.57692V12.4231ZM13.7308 4.25C13.7308 4.79166 13.2917 5.23077 12.75 5.23077C12.2083 5.23077 11.7692 4.79166 11.7692 4.25C11.7692 3.70834 12.2083 3.26923 12.75 3.26923C13.2917 3.26923 13.7308 3.70834 13.7308 4.25Z" fill="#0D141C"/>
</svg>
