<svg width="24" height="20" viewBox="0 0 24 20" fill="none" xmlns="http://www.w3.org/2000/svg">
<path d="M23.0272 1.01125C22.0685 1.68752 21.007 2.20476 19.8835 2.54305C19.2806 1.84974 18.4792 1.35835 17.5879 1.13532C16.6965 0.91229 15.7582 0.968392 14.8997 1.29604C14.0413 1.62368 13.3042 2.20706 12.7882 2.96727C12.2721 3.72748 12.002 4.62784 12.0143 5.54659V6.54777C10.2548 6.59339 8.51142 6.20317 6.9393 5.41187C5.36719 4.62058 4.01517 3.45276 3.00366 2.01243C3.00366 2.01243 -1.00106 11.023 8.00955 15.0278C5.94765 16.4274 3.49139 17.1292 1.0013 17.0301C10.0119 22.036 21.0249 17.0301 21.0249 5.51655C21.024 5.23768 20.9971 4.95949 20.9448 4.68557C21.9666 3.67788 22.6877 2.4056 23.0272 1.01125V1.01125Z" stroke="#F8F7F9" stroke-width="2" stroke-linecap="round" stroke-linejoin="round"/>
</svg>
