<svg width="17" height="15" viewBox="0 0 17 15" fill="none" xmlns="http://www.w3.org/2000/svg">
<path fill-rule="evenodd" clip-rule="evenodd" d="M16.8263 2.26125C16.7296 2.02769 16.5018 1.87537 16.249 1.87532H13.8717C13.1956 0.725116 11.9661 0.0135252 10.6319 0.000366202C9.64477 -0.012582 8.69413 0.373307 7.99529 1.07065C7.27604 1.77648 6.87186 2.74255 6.87422 3.75027V4.22604C3.72899 3.39638 1.15639 0.837846 1.12905 0.810503C0.957855 0.637793 0.702024 0.580065 0.473252 0.662523C0.244479 0.744982 0.0843082 0.952654 0.0626694 1.19487C-0.274041 4.92837 0.810307 7.42675 1.78138 8.86499C2.25486 9.57599 2.83087 10.2131 3.49071 10.7556C2.3009 12.1251 0.427504 12.8446 0.407192 12.8524C0.22853 12.9193 0.0902171 13.0642 0.031624 13.2457C-0.026969 13.4273 0.000576244 13.6257 0.106418 13.7844C0.165011 13.8719 0.39938 14.1789 0.972022 14.4656C1.67982 14.8203 2.61495 15 3.7493 15C9.27026 15 13.8834 10.7485 14.3545 5.27836L16.6912 2.94248C16.8699 2.76364 16.9232 2.49476 16.8263 2.26125ZM13.3108 4.55885C13.2036 4.66626 13.1392 4.80899 13.1295 4.9604C12.8116 9.88919 8.69293 13.75 3.7493 13.75C2.92432 13.75 2.34308 13.6407 1.93528 13.5094C2.83448 13.0211 4.08835 12.1813 4.89458 10.972C4.99023 10.8282 5.02215 10.6513 4.98279 10.4832C4.94343 10.3152 4.83629 10.1708 4.68678 10.0845C4.65006 10.0634 1.25639 8.02673 1.24936 2.58468C2.49933 3.60028 4.78443 5.17602 7.3953 5.61507C7.57641 5.64561 7.76179 5.59493 7.90218 5.47651C8.04257 5.35809 8.12376 5.18391 8.12419 5.00024V3.75027C8.12277 3.07676 8.39318 2.43116 8.87417 1.95969C9.33529 1.49771 9.96364 1.24186 10.6163 1.25034C11.6054 1.26284 12.5296 1.86595 12.9163 2.75108C13.0159 2.97848 13.2406 3.12536 13.4889 3.12529H14.7389L13.3108 4.55885Z" fill="#0D141C"/>
</svg>
